# xmcd
#
# Track frame offsets:
# 150
# 11272
# 32262
# 47763
# 59175
# 80516
# 102537
# 118968
# 137619
# 154940
# 177891
# 187853
# 193573
# 209254
#
# Disc length: 3010 seconds
#
#
# Revision: 0
# Processed by: cddbd v1.5.1PL2 Copyright (c) Steve Scherf et al.
# Submitted via: FreeRIP 2.944 
#
DISCID=bc0bc00e
DTITLE=DJ Abilities - First Born Instrumentals
DYEAR=2001
DGENRE=Hip-Hop
TTITLE0=One
TTITLE1=Music Music
TTITLE2=Powdered Water Too 1
TTITLE3=Powdered Water Too 2
TTITLE4=Liquid Sovereignty
TTITLE5=A Murder of Memories
TTITLE6=Big Shots
TTITLE7=The Dive 1
TTITLE8=The Dive 2
TTITLE9=Read Wiped in Blue
TTITLE10=Void (internal Theory)
TTITLE11=Void (external Theory)
TTITLE12=On This Stand
TTITLE13=Before and After
EXTD=
EXTT0=
EXTT1=
EXTT2=
EXTT3=
EXTT4=
EXTT5=
EXTT6=
EXTT7=
EXTT8=
EXTT9=
EXTT10=
EXTT11=
EXTT12=
EXTT13=
PLAYORDER=
